# xmcd
#
# Track frame offsets:
#	150
#	16679
#	30853
#	46029
#	61979
#	77522
#	94809
#	110444
#	126181
#	139195
#	155018
#	168799
#	182840
#	199506
#	214975
#	230311
#	245366
#	259768
#	272761
#	290518
#	304305
#	317563
#
# Disc length: 4473 seconds
#
# Revision: 0
# Processed by: cddbd v1.5.2PL0 Copyright (c) Steve Scherf et al.
# Submitted via: EasyCDDAExtractor 16.0.9.1
#
DISCID=25117716
DTITLE=Nu Country Traxx Volume 251 CAN
DYEAR=2015
DGENRE=country
TTITLE0=Tebey\n - When The Buzz Wears Off\n
TTITLE1=Cole Swindell\n - Let Me See Ya Girl\n
TTITLE2=Cam\n - My Mistake\n
TTITLE3=George Strait\n - Let It Go\n
TTITLE4=Bobby Wills\n - So Much For Taking It Slow\n
TTITLE5=Brothers Osborne\n - Stay A Little Longer\n
TTITLE6=Small Town Pistols\n - Can't Wait To Meet You\n
TTITLE7=Old Dominion\n - Break Up With Him\n
TTITLE8=Thompson Square\n - Trans Am\n
TTITLE9=LoCash\n - I Love This Life\n
TTITLE10=Gwen Sebastian\n - Throw It Back\n
TTITLE11=Chase Bryant\n - Little Bit Of You\n
TTITLE12=Chris Stapleton\n - Traveller\n
TTITLE13=Blackberry Smoke\n - Living In The Song\n
TTITLE14=Tyler Steel\n - Every One Of You\n
TTITLE15=Casey James\n - Fall Apart\n
TTITLE16=Rachele Lynae\n - Whole Lotta Nothin'\n
TTITLE17=SaraBeth\n - I'm Sick Of It\n
TTITLE18=Outshyne\n - Moonlight Crush\n
TTITLE19=Elvis Carden\n - Life (Out There Somewhere]\n
TTITLE20=Tim Chaisson\n - Crushed\n
TTITLE21=Davisson Brothers Band\n - Jesse James\n
EXTD=
EXTT0=
EXTT1=
EXTT2=
EXTT3=
EXTT4=
EXTT5=
EXTT6=
EXTT7=
EXTT8=
EXTT9=
EXTT10=
EXTT11=
EXTT12=
EXTT13=
EXTT14=
EXTT15=
EXTT16=
EXTT17=
EXTT18=
EXTT19=
EXTT20=
EXTT21=
PLAYORDER=
